<?xml version="1.0" encoding="UTF-8"?>
<svg xmlns="http://www.w3.org/2000/svg" xmlns:xlink="http://www.w3.org/1999/xlink" width="512" height="512" viewBox="0 0 54 56" version="1.1"><!-- Generator: Sketch 51.3 (57544) - http://www.bohemiancoding.com/sketch --><title>008 - Family Tree</title><desc>Created with Sketch.</desc><defs/><g id="Page-1" stroke="none" stroke-width="1" fill="none" fill-rule="evenodd"><g id="008---Family-Tree" transform="translate(0.000000, -1.000000)" fill="#000000" fill-rule="nonzero"><path d="M49.021,31.432 C47.78012,32.1894382 46.21988,32.1894382 44.979,31.432 C43.7629177,31.9661205 42.8111599,32.964692 42.336,34.205 C44.9848161,36.5982418 49.0151839,36.5982418 51.664,34.205 C51.1888401,32.964692 50.2370823,31.9661205 49.021,31.432 Z" id="Shape"/><circle id="Oval" cx="47" cy="28" r="2"/><path d="M33.522,8.937 C33.1845447,8.34687445 33.0047703,7.67978046 33,7 C33,4.790861 34.790861,3 37,3 C39.209139,3 41,4.790861 41,7 C40.9952297,7.67978046 40.8154553,8.34687445 40.478,8.937 C41.5487078,9.54651318 42.4378276,10.4301105 43.054,11.497 C44.7614457,8.55547912 44.1074225,4.812312 41.5036799,2.62406151 C38.8999373,0.43581103 35.1000627,0.43581103 32.4963201,2.62406151 C29.8925775,4.812312 29.2385543,8.55547912 30.946,11.497 C31.5621724,10.4301105 32.4512922,9.54651318 33.522,8.937 Z" id="Shape"/><circle id="Oval" cx="37" cy="7" r="2"/><path d="M13.522,8.937 C13.1845447,8.34687445 13.0047703,7.67978046 13,7 C13,4.790861 14.790861,3 17,3 C19.209139,3 21,4.790861 21,7 C20.9952297,7.67978046 20.8154553,8.34687445 20.478,8.937 C21.5487078,9.54651318 22.4378276,10.4301105 23.054,11.497 C24.7614457,8.55547912 24.1074225,4.812312 21.5036799,2.62406151 C18.8999373,0.43581103 15.1000627,0.43581103 12.4963201,2.62406151 C9.8925775,4.812312 9.23855434,8.55547912 10.946,11.497 C11.5621724,10.4301105 12.4512922,9.54651318 13.522,8.937 Z" id="Shape"/><circle id="Oval" cx="17" cy="7" r="2"/><path d="M27,22 C24.49719,21.9948456 22.1827917,23.328789 20.9326508,25.4970215 C19.6825099,27.665254 19.6876019,30.3365493 20.946,32.5 C21.5621724,31.4331105 22.4512922,30.5495132 23.522,29.94 C23.184047,29.34899 23.0042553,28.6807987 23,28 C23,25.790861 24.790861,24 27,24 C29.209139,24 31,25.790861 31,28 C30.9952297,28.6797805 30.8154553,29.3468745 30.478,29.937 C31.5487078,30.5465132 32.4378276,31.4301105 33.054,32.497 C34.3108536,30.3337304 34.3151147,27.6635463 33.0651717,25.4962764 C31.8152287,23.3290065 29.5018784,21.9954727 27,22 Z" id="Shape"/><path d="M19.021,10.432 C17.78012,11.1894382 16.21988,11.1894382 14.979,10.432 C13.7629177,10.9661205 12.8111599,11.964692 12.336,13.205 C14.9848161,15.5982418 19.0151839,15.5982418 21.664,13.205 C21.1888401,11.964692 20.2370823,10.9661205 19.021,10.432 Z" id="Shape"/><path d="M47,22 C44.49719,21.9948456 42.1827917,23.328789 40.9326508,25.4970215 C39.6825099,27.665254 39.6876019,30.3365493 40.946,32.5 C41.5621724,31.4331105 42.4512922,30.5495132 43.522,29.94 C43.184047,29.34899 43.0042553,28.6807987 43,28 C43,25.790861 44.790861,24 47,24 C49.209139,24 51,25.790861 51,28 C50.9952297,28.6797805 50.8154553,29.3468745 50.478,29.937 C51.5487078,30.5465132 52.4378276,31.4301105 53.054,32.497 C54.3108536,30.3337304 54.3151147,27.6635463 53.0651717,25.4962764 C51.8152287,23.3290065 49.5018784,21.9954727 47,22 Z" id="Shape"/><path d="M0,29 C-0.000317535016,30.2298736 0.326153596,31.4377478 0.946,32.5 C1.56217237,31.4331105 2.45129221,30.5495132 3.522,29.94 C3.18404701,29.34899 3.00425533,28.6807987 3,28 C3.00000003,25.790861 4.79086102,24.0000001 7,24.0000001 C9.20913898,24.0000001 11,25.790861 11,28 C10.9952297,28.6797805 10.8154553,29.3468745 10.478,29.937 C11.5487078,30.5465132 12.4378276,31.4301105 13.054,32.497 C14.5333647,29.9483733 14.2581489,26.7461734 12.3656038,24.4873483 C10.4730587,22.2285231 7.3685202,21.3968569 4.60023226,22.4071043 C1.83194433,23.4173517 -0.00719473373,26.053143 0,29 Z" id="Shape"/><path d="M39.021,10.432 C37.78012,11.1894382 36.21988,11.1894382 34.979,10.432 C33.7629177,10.9661205 32.8111599,11.964692 32.336,13.205 C34.9848161,15.5982418 39.0151839,15.5982418 41.664,13.205 C41.1888401,11.964692 40.2370823,10.9661205 39.021,10.432 Z" id="Shape"/><circle id="Oval" cx="27" cy="28" r="2"/><circle id="Oval" cx="38" cy="49" r="2"/><path d="M33.336,55.205 C35.9848161,57.5982418 40.0151839,57.5982418 42.664,55.205 C42.1888401,53.964692 41.2370823,52.9661205 40.021,52.432 C38.78012,53.1894382 37.21988,53.1894382 35.979,52.432 C34.7629177,52.9661205 33.8111599,53.964692 33.336,55.205 Z" id="Shape"/><path d="M29.021,31.432 C27.78012,32.1894382 26.21988,32.1894382 24.979,31.432 C23.7629177,31.9661205 22.8111599,32.964692 22.336,34.205 C24.9848161,36.5982418 29.0151839,36.5982418 31.664,34.205 C31.1888401,32.964692 30.2370823,31.9661205 29.021,31.432 Z" id="Shape"/><path d="M31,50 C30.9996825,51.2298736 31.3261536,52.4377478 31.946,53.5 C32.5621724,52.4331105 33.4512922,51.5495132 34.522,50.94 C34.184047,50.34899 34.0042553,49.6807987 34,49 C34,46.790861 35.790861,45 38,45 C40.209139,45 42,46.790861 42,49 C41.9952297,49.6797805 41.8154553,50.3468745 41.478,50.937 C42.5487078,51.5465132 43.4378276,52.4301105 44.054,53.497 C45.5333647,50.9483733 45.2581489,47.7461734 43.3656038,45.4873483 C41.4730587,43.2285231 38.3685202,42.3968569 35.6002323,43.4071043 C32.8319443,44.4173517 30.9928053,47.053143 31,50 Z" id="Shape"/><circle id="Oval" cx="7" cy="28" r="2"/><path d="M9.021,31.432 C7.78012003,32.1894382 6.21987997,32.1894382 4.979,31.432 C3.76291767,31.9661205 2.81115989,32.964692 2.336,34.205 C4.98481611,36.5982418 9.01518389,36.5982418 11.664,34.205 C11.1888401,32.964692 10.2370823,31.9661205 9.021,31.432 Z" id="Shape"/><path d="M28,21 L28,20 C28,19.4477153 28.4477153,19 29,19 L35,19 C36.6568542,19 38,17.6568542 38,16 C38,15.4477153 37.5522847,15 37,15 C36.4477153,15 36,15.4477153 36,16 C36,16.5522847 35.5522847,17 35,17 L29,17 C28.259601,17.0026037 27.5466671,17.2806479 27,17.78 C26.4533329,17.2806479 25.740399,17.0026037 25,17 L19,17 C18.4477153,17 18,16.5522847 18,16 C18,15.4477153 17.5522847,15 17,15 C16.4477153,15 16,15.4477153 16,16 C16,16.5522847 15.5522847,17 15,17 L9,17 C7.34314575,17 6,18.3431458 6,20 L6,21 C6,21.5522847 6.44771525,22 7,22 C7.55228475,22 8,21.5522847 8,21 L8,20 C8,19.4477153 8.44771525,19 9,19 L15,19 C15.740399,18.9973963 16.4533329,18.7193521 17,18.22 C17.5466671,18.7193521 18.259601,18.9973963 19,19 L25,19 C25.5522847,19 26,19.4477153 26,20 L26,21 C26,21.5522847 26.4477153,22 27,22 C27.5522847,22 28,21.5522847 28,21 Z" id="Shape"/><path d="M49,36 C48.4477153,36 48,36.4477153 48,37 C48,37.5522847 47.5522847,38 47,38 L40,38 C39.259601,38.0026037 38.5466671,38.2806479 38,38.78 C37.4533329,38.2806479 36.740399,38.0026037 36,38 L29,38 C28.4477153,38 28,37.5522847 28,37 C28,36.4477153 27.5522847,36 27,36 C26.4477153,36 26,36.4477153 26,37 C26,38.6568542 27.3431458,40 29,40 L36,40 C36.5522847,40 37,40.4477153 37,41 L37,42 C37,42.5522847 37.4477153,43 38,43 C38.5522847,43 39,42.5522847 39,42 L39,41 C39,40.4477153 39.4477153,40 40,40 L47,40 C48.6568542,40 50,38.6568542 50,37 C50,36.4477153 49.5522847,36 49,36 Z" id="Shape"/><path d="M39,28 L35,28 C34.4477153,28 34,28.4477153 34,29 C34,29.5522847 34.4477153,30 35,30 L39,30 C39.5522847,30 40,29.5522847 40,29 C40,28.4477153 39.5522847,28 39,28 Z" id="Shape"/></g></g></svg>
