<svg id="Capa_1" enable-background="new 0 0 512 512" height="512" viewBox="0 0 512 512" width="512" xmlns="http://www.w3.org/2000/svg"><g><g><circle cx="366" cy="35" r="35"/><path d="m406.528 85.763c-11.123 8.898-25.21 14.237-40.528 14.237s-29.405-5.339-40.528-14.237c-11.966 10.969-19.472 26.725-19.472 44.237v15c0 8.284 6.716 15 15 15h90c8.284 0 15-6.716 15-15v-15c0-17.512-7.506-33.268-19.472-44.237z"/></g><g><circle cx="146" cy="35" r="35"/><path d="m186.528 85.763c-11.123 8.898-25.21 14.237-40.528 14.237s-29.405-5.339-40.528-14.237c-11.966 10.969-19.472 26.725-19.472 44.237v15c0 8.284 6.716 15 15 15h90c8.284 0 15-6.716 15-15v-15c0-17.512-7.506-33.268-19.472-44.237z"/></g><g><circle cx="452" cy="387" r="35"/><path d="m492.528 437.763c-11.123 8.898-25.21 14.237-40.528 14.237s-29.405-5.339-40.528-14.237c-11.966 10.969-19.472 26.725-19.472 44.237v15c0 8.284 6.716 15 15 15h90c8.284 0 15-6.716 15-15v-15c0-17.512-7.506-33.268-19.472-44.237z"/></g><g><circle cx="60" cy="387" r="35"/><path d="m100.528 437.763c-11.123 8.898-25.21 14.237-40.528 14.237s-29.405-5.339-40.528-14.237c-11.966 10.969-19.472 26.725-19.472 44.237v15c0 8.284 6.716 15 15 15h90c8.284 0 15-6.716 15-15v-15c0-17.512-7.506-33.268-19.472-44.237z"/></g><g><circle cx="256" cy="387" r="35"/><path d="m296.528 437.763c-11.123 8.898-25.21 14.237-40.528 14.237s-29.405-5.339-40.528-14.237c-11.966 10.969-19.472 26.725-19.472 44.237v15c0 8.284 6.716 15 15 15h90c8.284 0 15-6.716 15-15v-15c0-17.512-7.506-33.268-19.472-44.237z"/></g><path d="m467 323.766v-67.766c0-8.284-6.716-15-15-15h-71v-51h-30v51h-190v-51h-30v51h-71c-8.284 0-15 6.716-15 15v67.766c4.819-1.143 9.837-1.766 15-1.766s10.181.623 15 1.766v-52.766h166v52.766c4.819-1.143 9.837-1.766 15-1.766s10.181.623 15 1.766v-52.766h166v52.766c4.819-1.143 9.837-1.766 15-1.766s10.181.623 15 1.766z"/></g></svg>